<svg width="55" height="64" viewBox="0 0 55 64" fill="none" xmlns="http://www.w3.org/2000/svg">
<path d="M50.8751 47.0224L32.087 9.05492C31.6175 8.12473 30.9473 7.35347 30.1427 6.81757C29.3381 6.28168 28.4272 5.99976 27.5001 5.99976C26.5731 5.99976 25.6621 6.28168 24.8575 6.81757C24.0529 7.35347 23.3827 8.12473 22.9132 9.05492L4.12511 47.0224C3.67337 47.9221 3.4353 48.9454 3.4353 49.9874C3.4353 51.0294 3.67337 52.0527 4.12511 52.9524C4.58859 53.8882 5.2577 54.6637 6.06377 55.1993C6.86985 55.7348 7.78386 56.0111 8.71202 55.9999H46.2882C47.2156 56.0103 48.1287 55.7335 48.934 55.198C49.7393 54.6625 50.4077 53.8875 50.8708 52.9524C51.3232 52.0532 51.562 51.0301 51.5628 49.9881C51.5635 48.9461 51.3262 47.9226 50.8751 47.0224ZM25.7814 25.9999C25.7814 25.4695 25.9624 24.9608 26.2848 24.5857C26.6071 24.2106 27.0443 23.9999 27.5001 23.9999C27.9559 23.9999 28.3931 24.2106 28.7154 24.5857C29.0378 24.9608 29.2189 25.4695 29.2189 25.9999V35.9999C29.2189 36.5304 29.0378 37.0391 28.7154 37.4141C28.3931 37.7892 27.9559 37.9999 27.5001 37.9999C27.0443 37.9999 26.6071 37.7892 26.2848 37.4141C25.9624 37.0391 25.7814 36.5304 25.7814 35.9999V25.9999ZM27.5001 47.9999C26.9902 47.9999 26.4917 47.824 26.0678 47.4943C25.6438 47.1647 25.3134 46.6962 25.1182 46.148C24.9231 45.5998 24.872 44.9966 24.9715 44.4147C25.071 43.8327 25.3165 43.2982 25.6771 42.8786C26.0377 42.459 26.497 42.1733 26.9971 42.0576C27.4972 41.9418 28.0156 42.0012 28.4867 42.2283C28.9578 42.4553 29.3605 42.8399 29.6437 43.3332C29.927 43.8266 30.0782 44.4066 30.0782 44.9999C30.0782 45.7956 29.8066 46.5586 29.3231 47.1212C28.8396 47.6839 28.1839 47.9999 27.5001 47.9999Z" fill="#F40000"/>
</svg>
